<?xml version="1.0" standalone="no"?>
<!DOCTYPE svg PUBLIC "-//W3C//DTD SVG 20010904//EN"
 "http://www.w3.org/TR/2001/REC-SVG-20010904/DTD/svg10.dtd">
<svg version="1.0" xmlns="http://www.w3.org/2000/svg"
 width="980.000000pt" height="980.000000pt" viewBox="0 0 980.000000 980.000000"
 preserveAspectRatio="xMidYMid meet">

<g transform="translate(0.000000,980.000000) scale(0.100000,-0.100000)"
fill="#000000" stroke="none">
<path d="M7995 9794 c-247 -28 -514 -128 -735 -275 -136 -91 -335 -291 -429
-433 -117 -177 -207 -382 -247 -566 -24 -109 -27 -540 -5 -660 34 -188 165
-482 288 -645 243 -324 596 -549 1003 -637 89 -19 135 -22 305 -22 224 0 318
14 514 80 442 147 799 478 982 909 104 248 124 361 116 694 -4 214 -7 245 -31
328 -193 694 -731 1155 -1425 1223 -97 9 -268 11 -336 4z m1191 -916 l195
-193 -756 -770 c-416 -423 -762 -770 -769 -770 -7 0 -209 191 -450 423 l-436
424 177 186 c97 103 187 198 200 212 l23 24 236 -234 236 -235 556 563 c337
341 564 563 575 562 10 0 106 -87 213 -192z"/>
<path d="M2288 8360 c-63 -11 -145 -49 -191 -89 -83 -73 -122 -235 -94 -392
17 -98 69 -227 801 -1984 280 -673 421 -1023 415 -1030 -7 -6 -467 -13 -1312
-17 -716 -4 -1375 -12 -1464 -16 -153 -8 -165 -10 -227 -41 -109 -54 -183
-157 -208 -291 -14 -71 -11 -94 58 -419 52 -247 812 -3547 849 -3690 49 -183
126 -280 282 -353 l88 -41 3345 7 c3322 7 3927 13 3985 36 52 20 130 86 178
149 44 58 47 69 101 290 150 613 601 2579 828 3606 83 374 91 460 49 553 -29
63 -86 117 -179 165 l-67 35 -1673 8 -1673 9 -69 155 c-931 2105 -1235 2781
-1285 2857 -62 93 -173 133 -585 208 -263 48 -1024 175 -1345 224 -488 75
-510 77 -607 61z m1299 -1090 c197 -34 407 -71 466 -83 l108 -22 46 -100 c272
-600 973 -2179 973 -2193 0 -6 -10 -12 -22 -15 -13 -3 -228 -9 -479 -13 l-455
-7 -184 439 c-502 1203 -840 2025 -840 2043 0 6 6 11 14 11 8 0 176 -27 373
-60z m-1541 -3336 l51 -5 12 -52 c20 -85 237 -1090 271 -1255 18 -84 29 -156
25 -160 -10 -10 -1026 -15 -1035 -5 -9 9 -316 1352 -326 1426 -4 26 -5 48 -3
49 27 11 895 14 1005 2z m1685 -274 l115 -285 48 -435 c26 -239 50 -447 53
-462 l6 -28 -524 1 c-288 1 -582 4 -654 8 l-129 6 -8 30 c-16 59 -298 1414
-298 1429 0 17 199 22 930 21 l345 0 116 -285z m1793 280 c127 0 237 -4 245
-9 12 -7 8 -62 -23 -342 -52 -466 -124 -1078 -132 -1113 l-6 -29 -710 5 c-401
3 -713 9 -717 14 -9 9 -64 464 -58 471 3 2 53 -6 113 -18 96 -19 117 -21 182
-10 152 23 270 111 335 248 28 61 32 79 35 178 4 127 -4 158 -107 408 -52 127
-69 181 -58 189 6 4 531 15 596 12 41 -2 178 -4 305 -4z m1891 -9 c26 -7 30
-12 27 -37 -4 -33 -155 -770 -241 -1169 l-58 -270 -652 -3 -653 -2 6 32 c6 38
90 748 136 1158 17 151 32 281 35 287 3 10 81 13 322 15 443 4 1042 -2 1078
-11z m1321 4 c17 -4 20 -10 16 -32 -12 -70 -141 -648 -229 -1025 l-97 -417
-41 -7 c-75 -11 -983 0 -995 12 -9 9 15 133 89 480 55 258 123 580 152 716 29
136 56 253 60 260 6 10 65 14 251 18 261 5 759 2 794 -5z m-6272 -1726 c9 -9
276 -1283 270 -1289 -12 -11 -206 -18 -544 -18 -358 -1 -456 5 -469 26 -4 7
-24 83 -44 169 -60 258 -245 1066 -249 1087 -2 14 5 22 22 27 29 9 1005 7
1014 -2z m1500 -9 c14 -15 57 -353 121 -955 13 -126 27 -249 29 -272 4 -30 1
-45 -11 -55 -13 -10 -120 -13 -564 -13 -301 0 -550 3 -554 6 -9 10 -32 112
-149 654 -144 673 -137 638 -123 647 7 5 287 7 624 6 529 -3 614 -5 627 -18z
m1622 -17 c-6 -38 -146 -1260 -146 -1276 0 -14 -1067 -4 -1081 10 -9 9 -118
935 -144 1226 l-7 77 692 0 692 0 -6 -37z m1427 30 c59 -5 67 -8 67 -27 0 -19
-85 -432 -211 -1028 l-52 -247 -71 -6 c-91 -8 -1062 -2 -1071 7 -4 3 3 91 14
195 45 400 122 1050 127 1081 l6 32 562 0 c308 0 591 -3 629 -7z m1350 -25
c-14 -71 -291 -1269 -294 -1273 -2 -2 -234 -7 -515 -11 l-512 -7 15 64 c8 35
68 314 133 620 65 305 122 571 127 590 8 31 13 35 54 40 24 3 259 7 521 7
l478 2 -7 -32z"/>
</g>
</svg>
